<?xml version="1.0" encoding="iso-8859-1"?>
<!-- Generator: Adobe Illustrator 16.0.0, SVG Export Plug-In . SVG Version: 6.00 Build 0)  -->
<!DOCTYPE svg PUBLIC "-//W3C//DTD SVG 1.1//EN" "http://www.w3.org/Graphics/SVG/1.1/DTD/svg11.dtd">
<svg version="1.1" id="Capa_1" xmlns="http://www.w3.org/2000/svg" xmlns:xlink="http://www.w3.org/1999/xlink" x="0px" y="0px"
	 width="390.217px" height="390.217px" viewBox="0 0 390.217 390.217" style="enable-background:new 0 0 390.217 390.217;"
	 xml:space="preserve">
<g>
	<g>
		<g id="Layer_5_97_">
			<g>
				<path d="M248.053,132.891H7.918c-4.355,0-7.918,3.563-7.918,7.918v240.135c0,4.354,3.563,7.918,7.918,7.918h240.135
					c4.354,0,7.917-3.562,7.917-7.918V140.809C255.97,136.454,252.406,132.891,248.053,132.891z"
					style=" stroke:none;fill-rule:nonzero;fill:#ffffff;fill-opacity:1;"/>
				<path d="M383.584,1.355H137.066c-3.65,0-6.632,2.985-6.632,6.632c0,0,0,56.778,0,104.47c0,4.242,4.263,4.356,4.263,4.356
					h134.764c3.275,0,5.304,3.12,5.304,5.676v134.145c0,0,0.153,4.504,4.433,4.504c47.672,0,104.389,0,104.389,0
					c3.646,0,6.631-2.983,6.631-6.631V7.986C390.215,4.34,387.229,1.355,383.584,1.355z"
					style=" stroke:none;fill-rule:nonzero;fill:#ffffff;fill-opacity:1;"/>
			</g>
		</g>
	</g>
</g>
<g>
</g>
<g>
</g>
<g>
</g>
<g>
</g>
<g>
</g>
<g>
</g>
<g>
</g>
<g>
</g>
<g>
</g>
<g>
</g>
<g>
</g>
<g>
</g>
<g>
</g>
<g>
</g>
<g>
</g>
</svg>
