<?xml version="1.0" encoding="iso-8859-1"?>
<!-- Generator: Adobe Illustrator 19.0.0, SVG Export Plug-In . SVG Version: 6.00 Build 0)  -->
<svg version="1.1" id="Capa_1" xmlns="http://www.w3.org/2000/svg" xmlns:xlink="http://www.w3.org/1999/xlink" x="0px" y="0px"
	 viewBox="0 0 512 512" style="enable-background:new 0 0 512 512;" xml:space="preserve">
<g>
	<g>
		<path d="M421,150c-7.301,0-169.894,0-180,0c0,3.717,0,85.906,0,90c0,16.5,13.5,30,30,30s30-13.5,30-30v120
			c0,16.569,13.431,30,30,30c16.569,0,30-13.431,30-30v-60c0,16.569,13.431,30,30,30c16.569,0,30-13.431,30-30v-90
			c16.5,0,30-13.5,30-30S437.5,150,421,150z" style=" stroke:none;fill-rule:nonzero;fill:rgb(100%,100%,100%);fill-opacity:1;"/>
	</g>
</g>
<g>
	<g>
		<path d="M391,360c0,33.091-26.909,60-60,60s-60-26.909-60-60v-60c-33.091,0-60-26.909-60-60H91v227c0,24.853,20.147,45,45,45h240
			c24.853,0,45-20.147,45-45V351.656C412.14,356.823,401.977,360,391,360z" style=" stroke:none;fill-rule:nonzero;fill:rgb(100%,100%,100%);fill-opacity:1;"/>
	</g>
</g>
<g>
	<g>
		<path d="M91,150c-16.569,0-30,13.431-30,30c0,16.569,13.431,30,30,30h120v-60H91z" style=" stroke:none;fill-rule:nonzero;fill:rgb(100%,100%,100%);fill-opacity:1;"/>
	</g>
</g>
<g>
	<g>
		<path d="M256,0C180.634,0,117.05,50.85,97.396,120h31.758C147.777,67.711,197.395,30,256,30c58.605,0,108.223,37.711,126.846,90
			h31.758C394.95,50.85,331.366,0,256,0z" style=" stroke:none;fill-rule:nonzero;fill:rgb(100%,100%,100%);fill-opacity:1;"/>
	</g>
</g>
<g>
</g>
<g>
</g>
<g>
</g>
<g>
</g>
<g>
</g>
<g>
</g>
<g>
</g>
<g>
</g>
<g>
</g>
<g>
</g>
<g>
</g>
<g>
</g>
<g>
</g>
<g>
</g>
<g>
</g>
</svg>
