<svg id="Capa_1" enable-background="new 0 0 480.003 480.003" height="512" viewBox="0 0 480.003 480.003" width="512" xmlns="http://www.w3.org/2000/svg"><g><path d="m240.015 479.981c-52.965.173-104.471-17.344-146.349-49.771-41.03-31.688-70.778-75.734-84.851-125.629-4.75-17.024 5.201-34.675 22.224-39.424 17.024-4.75 34.675 5.201 39.425 22.224 10.331 36.593 32.159 68.892 62.259 92.124 30.703 23.77 68.463 36.607 107.292 36.476 97.047 0 176-78.953 176-176s-78.953-176-176-176c-54.729-.038-106.349 25.43-139.62 68.885l66.585-19.585c16.955-4.987 34.742 4.716 39.729 21.671s-4.716 34.742-21.671 39.729l-135.995 40c-16.955 4.986-34.742-4.717-39.728-21.672-.694-2.362-1.114-4.795-1.251-7.253l-8-144c-1.104-17.638 12.301-32.832 29.939-33.935s32.832 12.301 33.935 29.94c.009.149.018.298.025.448l2.03 36.553c91.26-96.114 243.156-100.049 339.269-8.789s100.049 243.156 8.789 339.269c-45.31 47.721-108.23 74.741-174.036 74.739zm-200.386-200c-8.837.006-15.995 7.175-15.989 16.011.001 1.45.199 2.892.589 4.289 13.136 46.57 40.903 87.68 79.2 117.256 98.061 75.43 238.704 57.084 314.134-40.978 30.121-39.158 46.452-87.175 46.452-136.578.152-123.64-99.956-223.994-223.596-224.145-68.099-.084-132.534 30.833-175.078 84.006-2.766 3.445-7.801 3.996-11.247 1.23-1.77-1.421-2.853-3.526-2.979-5.791l-3.126-56.188c-.4-8.827-7.881-15.659-16.708-15.259s-15.659 7.881-15.259 16.708c.005.109.011.218.018.327l8 144c.491 8.823 8.041 15.577 16.864 15.087 1.228-.068 2.443-.278 3.623-.625l136-40c8.478-2.494 13.329-11.387 10.835-19.865s-11.387-13.329-19.865-10.835l-87.858 25.841c-4.239 1.247-8.686-1.178-9.932-5.417-.625-2.125-.341-4.413.783-6.321 12.485-21.255 28.94-39.911 48.468-54.953 33.497-25.934 74.694-39.941 117.057-39.8 105.869 0 192 86.131 192 192s-86.131 192-192 192c-42.363.141-83.56-13.866-117.057-39.8-32.831-25.347-56.639-60.582-67.906-100.5-1.941-6.914-8.242-11.694-15.423-11.7z"/></g></svg>