<svg id="Capa_1" enable-background="new 0 0 480.121 480.121" height="512" viewBox="0 0 480.121 480.121" width="512" xmlns="http://www.w3.org/2000/svg"><g><path d="m240.054 480.119c-132.548 0-240-107.451-240.001-239.999 0-63.652 25.286-124.698 70.295-169.707 93.473-93.713 245.218-93.909 338.932-.436 1.622 1.617 3.22 3.258 4.794 4.921l2.03-36.553c.856-17.652 15.859-31.269 33.512-30.413 17.652.856 31.269 15.859 30.413 33.512-.007.15-.016.3-.025.449l-8 144c-.98 17.646-16.08 31.156-33.725 30.176-2.458-.137-4.893-.556-7.255-1.251l-135.994-40c-16.954-4.987-26.656-22.773-21.67-39.728 4.987-16.954 22.773-26.656 39.728-21.67l66.585 19.584c-33.271-43.453-84.891-68.921-139.619-68.885-97.047 0-176 78.953-176 176s78.953 176 176 176c38.828.132 76.589-12.704 107.292-36.473 30.1-23.233 51.929-55.533 62.259-92.127 4.75-17.024 22.401-26.974 39.424-22.224 17.024 4.75 26.974 22.401 22.225 39.424-14.071 49.896-43.82 93.943-84.849 125.632-41.879 32.427-93.386 49.942-146.351 49.768zm0-464c-123.712 0-224 100.288-224 224 0 59.409 23.6 116.384 65.608 158.392 79.563 79.555 205.79 87.755 294.977 19.162 38.297-29.576 66.064-70.686 79.2-117.256 2.375-8.512-2.6-17.337-11.111-19.712-8.512-2.375-17.337 2.6-19.712 11.112-11.267 39.918-35.075 75.153-67.907 100.5-33.496 25.935-74.693 39.943-117.055 39.802-105.869 0-192-86.131-192-192s86.131-192 192-192c42.363-.141 83.56 13.866 117.057 39.8 19.529 15.043 35.983 33.7 48.468 54.956 2.244 3.806.978 8.71-2.828 10.955-1.908 1.125-4.196 1.408-6.321.783l-87.856-25.844c-8.477-2.493-17.37 2.357-19.864 10.834-2.494 8.477 2.356 17.371 10.833 19.866h.002l136 40c8.478 2.493 17.371-2.359 19.864-10.836.347-1.18.557-2.397.625-3.626l8-144c.581-8.817-6.097-16.436-14.914-17.017s-16.436 6.097-17.017 14.914c-.007.109-.013.218-.018.326l-3.131 56.188c-.245 4.411-4.02 7.789-8.431 7.544-2.269-.126-4.378-1.211-5.799-2.984-11.163-13.942-23.949-26.502-38.089-37.414-39.083-30.26-87.152-46.606-136.581-46.445z"/></g></svg>